<?xml version="1.0" encoding="utf-8"?>
<svg viewBox="0 0 240 320" width="240px" height="320px" xmlns="http://www.w3.org/2000/svg">
  <defs>
    <linearGradient gradientUnits="userSpaceOnUse" x1="118.444" y1="237.608" x2="118.444" y2="337.581" id="gradient-1">
      <stop offset="0" style="stop-color: rgba(115, 209, 48, 1)"/>
      <stop offset="1" style="stop-color: rgba(69, 127, 28, 1)"/>
    </linearGradient>
    <linearGradient gradientUnits="userSpaceOnUse" x1="127.291" y1="137.615" x2="127.291" y2="304.846" id="gradient-0" gradientTransform="matrix(0.982961, 0.183813, -0.152325, 0.814574, 48.604574, 33.128667)">
      <stop offset="0" style="stop-color: rgba(104, 59, 0, 1)"/>
      <stop offset="1" style="stop-color: rgba(2, 1, 0, 1)"/>
    </linearGradient>
    <linearGradient gradientUnits="userSpaceOnUse" x1="82.102" y1="137.305" x2="82.102" y2="260.544" id="gradient-3">
      <stop offset="0" style="stop-color: rgba(62, 47, 0, 1)"/>
      <stop offset="1" style="stop-color: rgba(0, 0, 0, 1)"/>
    </linearGradient>
  </defs>
  <path stroke-width="0" d="M 12.636 137.308 C 16.778 137.038 22.798 154.504 26.36 155.499 C 30.204 156.574 34.817 159.044 37.233 160.639 C 39.022 161.821 53.62 154.907 56.306 156.207 C 61.901 158.915 68.025 171.361 74.752 174.904 C 78.963 177.122 76.113 182.924 77.578 185.951 C 79.613 190.157 82.669 195.589 86.721 198.405 C 89.815 200.555 97.026 186.596 100.993 186.679 C 104.021 186.743 112.631 166.675 115.697 167.071 C 120.133 167.644 119.716 185.025 122.782 185.896 C 124.219 186.305 125.557 192.632 126.291 192.833 C 126.883 192.997 129.477 184.801 130.181 184.644 C 131.713 184.304 136.42 185.41 139.274 184.054 C 141.96 182.778 144.177 183.107 147.756 182.566 C 151.957 181.931 166.175 138.966 171.081 139.667 C 176.31 140.414 185.572 193.197 189.42 195.482 C 193.069 197.65 182.367 206.73 184.197 210.248 C 186.615 214.896 185.447 223.767 187.947 228.572 C 189.918 232.362 194.579 234.405 196.195 237.511 C 197.76 240.52 198.882 243.749 197.695 246.896 C 196.383 250.375 192.23 255.131 187.571 257.399 C 183.202 259.526 175.768 260.372 171.076 260.527 C 167.308 260.653 164.422 260.059 161.328 259.187 C 158.026 258.256 153.498 255.903 151.955 254.941 C 151.17 254.45 151.721 254.012 150.831 253.824 C 149.156 253.47 144.143 254.864 140.333 254.717 C 135.988 254.55 130.337 252.73 126.086 252.483 C 122.479 252.273 120.002 253.539 116.338 252.93 C 111.453 252.117 103.344 249.382 99.467 246.449 C 95.64 243.553 94.476 235.633 93.095 235.499 C 92.023 235.396 92.665 239.554 91.219 241.533 C 89.612 243.733 87.124 246.372 83.347 248.013 C 79.074 249.869 71.162 251.435 66.1 251.589 C 61.872 251.717 58.185 250.822 54.853 249.801 C 51.574 248.797 48.637 247.448 46.231 245.555 C 43.505 243.412 42.755 239.485 39.857 237.287 C 37.154 235.237 32.255 234.444 29.734 232.594 C 27.343 230.84 26.815 226.247 24.86 226.561 C 21.961 227.027 17.647 239.796 13.988 243.321 C 11.628 245.594 10.168 246.461 6.865 247.567 C 2.783 248.933 -4.155 250.506 -9.631 250.248 C -15.278 249.983 -22.531 247.98 -26.502 245.779 C -30.133 243.766 -32.188 240.503 -33.252 237.958 C -34.205 235.674 -34.26 234.69 -33.252 231.254 C -31.294 224.594 -17.546 204.066 -16.005 197.734 C -15.253 194.645 -17.202 194.472 -16.754 191.924 C -16.082 188.093 -11.188 180.826 -10.007 176.282 C -9.037 172.554 -10.721 169.484 -9.257 166.449 C -7.812 163.457 -5.296 160.217 -1.383 158.181 C 2.707 156.053 7.697 137.629 12.636 137.308 Z" style="stroke-width: 2px; fill: url(#gradient-3);"/>
  <path stroke-width="0" d="M 32.682 147.012 C 34.9 146.542 38.29 137.007 40.65 137.646 C 43.287 138.36 45.404 151.165 47.696 154.206 C 51.11 158.733 51.37 170.031 53.426 179.305 C 55.904 190.482 57.382 216.19 60.615 217.404 C 63.175 218.365 67.044 201.34 71.09 197.851 C 74.052 195.297 79.581 178.294 82.948 178.66 C 86.658 179.063 89.355 196.933 92.389 200.993 C 96.676 206.73 97.628 230.164 100.42 230.672 C 102.782 231.102 104.585 215.576 107.752 211.818 C 110.049 209.092 114.977 193.059 117.684 192.384 C 120.218 191.751 123.311 205.676 125.873 206.492 C 128.781 207.418 129.4 210.095 132.194 213.563 C 136.282 218.638 139.94 238.179 143.716 238.354 C 147.265 238.518 151.613 220.817 154.191 217.404 C 155.46 215.724 156.245 216.142 157.333 214.96 C 158.775 213.394 159.886 210.255 161.872 208.326 C 164.004 206.255 166.186 206.723 169.903 203.088 C 177.629 195.535 197.045 162.349 206.565 155.952 C 211.807 152.429 217.615 140.499 221.312 141.24 C 224.543 141.887 226.047 156.193 227.864 159.094 C 230.11 162.681 227.901 168.05 230.657 175.155 C 235.214 186.899 253.795 212.07 259.289 224.737 C 262.967 233.218 265.215 239.364 264.875 244.988 C 264.598 249.58 261.722 254.065 259.638 256.51 C 258.081 258.337 255.328 257.943 254.4 259.653 C 253.347 261.593 255.233 265.234 254.4 268.033 C 253.467 271.169 250.24 275.679 248.465 277.46 C 247.335 278.593 246.031 278.541 245.322 279.206 C 244.758 279.735 245.154 280.379 244.275 280.952 C 242.427 282.156 236.704 284.916 231.705 284.443 C 225.09 283.817 211.076 272.453 207.613 273.968 C 205.245 275.004 208.063 281.154 206.914 284.094 C 205.799 286.949 203.552 289.434 200.979 291.426 C 198.187 293.587 195.899 294.742 190.504 296.315 C 181.125 299.048 157.4 302.892 145.113 303.996 C 135.797 304.833 131.847 305.392 122.068 303.996 C 108.012 301.991 75.485 290.297 66.9 289.331 C 63.501 288.949 64.278 290.667 61.314 290.03 C 54.964 288.666 35.888 279.272 27.096 273.968 C 20.293 269.865 15.831 266.203 11.384 261.748 C 7.19 257.548 4.367 251.507 0.909 248.13 C -1.906 245.382 -5.607 244.682 -7.471 242.195 C -9.226 239.853 -10.061 236.555 -10.264 233.815 C -10.458 231.206 -10.249 229.631 -8.868 226.133 C -6.481 220.088 2.238 209.155 6.495 199.597 C 10.921 189.66 13.154 175.795 16.97 167.474 C 19.919 161.045 21.892 158.968 24.986 156.127 C 27.104 154.182 30.478 147.479 32.682 147.012 Z" style="stroke-width: 2px; fill-rule: nonzero; paint-order: fill; fill: url(#gradient-0);" class="mountain"/>
  <path stroke-width="0" d="M 240.915 326.364 C 235.574 328.324 223.831 328.024 219.616 330.205 C 216.943 331.589 217.638 334.211 215.077 335.443 C 211.302 337.258 206.209 337.742 196.921 337.538 C 179.676 337.158 133.767 328.524 111.725 327.063 C 95.863 326.011 85.652 326.524 74.016 327.063 C 63.473 327.551 51.834 330.834 44.686 329.856 C 39.663 329.169 37.504 324.996 33.513 324.968 C 29.173 324.937 22.729 330.318 19.546 330.554 C 17.597 330.699 16.686 329.248 15.356 329.158 C 14.136 329.075 13.52 330.252 11.865 329.856 C 8.789 329.119 1.231 324.967 -2.451 321.127 C -6.058 317.364 -8.829 312.285 -10.132 307.161 C -11.484 301.846 -11.233 294.19 -10.132 289.702 C -9.28 286.226 -11.104 284.968 -9.103 283.157 C -7.292 281.516 -11.339 279.206 -10.132 276.33 C -7.709 270.556 -4.751 245.772 -3.847 238.026 C -3.83 237.884 -3.813 237.744 -3.795 237.608 C -3.095 238.003 -2.343 238.377 -1.542 238.759 C 2.052 240.474 8.651 239.715 12.424 242.25 C 16.233 244.81 17.925 250.693 21.153 254.122 C 24.237 257.397 27.171 260.15 31.279 262.502 C 35.927 265.163 41.4 267.729 48.039 268.787 C 56.05 270.064 65.425 267.971 76.67 268.088 C 90.759 268.236 114.238 268.743 126.949 270.183 C 135.973 271.206 141.223 272.254 147.899 274.373 C 154.483 276.464 160.502 281.403 166.754 282.753 C 172.602 284.016 178.178 284.039 184.212 282.753 C 190.929 281.321 197.712 275.209 205.162 273.675 C 212.817 272.099 225.045 272.783 229.603 273.675 C 231.957 274.136 231.792 275.349 233.793 275.77 C 236.63 276.367 241.534 276.638 246.112 275.932 C 246.57 276.535 247.018 277.137 247.454 277.734 C 247.325 284.113 247.219 290.444 247.357 296.911 C 247.519 304.51 247.679 313.916 247.943 322.581 C 246.055 324.05 243.817 325.3 240.915 326.364 Z" style="stroke-width: 2px; fill: url(#gradient-1);" class="grass"/>
  <ellipse style="fill: rgb(234, 255, 0);" cx="125.412" cy="99.046" rx="36.043" ry="34.154" class="sun"/>
  <g class="clouds">
    <path stroke-width="0" d="M -71.805 23.734 C -69.104 23.008 -66.648 23.056 -64.123 23.734 C -63.177 23.987 -62.148 24.305 -61.127 24.719 C -60.742 24.309 -60.376 23.948 -60.046 23.646 C -58.445 22.182 -57.233 21.871 -55.158 21.551 C -54.11 21.389 -52.8 21.283 -51.399 21.28 C -50.467 19.948 -49.527 18.814 -48.766 18.073 C -47.187 16.534 -45.991 16.305 -43.878 15.978 C -41.031 15.537 -35.997 15.715 -32.704 16.676 C -29.657 17.566 -26.684 18.882 -24.674 21.215 C -23.578 22.486 -22.5 24.223 -21.711 26.09 C -21.662 26.086 -21.612 26.084 -21.563 26.081 C -17.233 25.855 -9.034 27.624 -5.851 30.97 C -2.806 34.17 -1.633 41.198 -2.359 45.285 C -3.018 48.99 -5.893 52.781 -8.993 54.713 C -12.22 56.723 -17.822 57.54 -21.563 56.808 C -22.385 56.647 -23.217 56.389 -24.036 56.054 C -24.051 56.135 -24.067 56.216 -24.083 56.297 C -24.898 60.301 -28.389 65.607 -31.415 67.819 C -34.013 69.717 -37.326 70.431 -40.494 69.914 C -44.019 69.339 -49.259 66.647 -51.757 63.61 C -52.249 64.029 -52.745 64.402 -53.233 64.72 C -56.145 66.615 -60.397 67.333 -63.708 66.814 C -67.032 66.294 -70.985 64.454 -73.135 61.577 C -74.383 59.907 -75.395 57.263 -76.019 54.565 C -78.911 53.239 -81.752 51.143 -83.327 49.222 C -85.39 46.706 -86.255 43.316 -86.12 40.144 C -85.974 36.707 -84.319 32.056 -81.93 29.32 C -79.545 26.588 -74.985 24.589 -71.805 23.734 Z" style="stroke-width: 2px; fill: rgb(212, 212, 212); fill-opacity: 0.74;" class="cloud1"/>
    <path stroke-width="0" d="M 274.067 54.838 C 274.104 54.798 274.14 54.759 274.178 54.72 C 276.18 52.61 279.535 51.372 282.35 50.846 C 285.097 50.333 288.284 50.572 290.849 51.492 C 293.403 52.408 296.137 53.867 297.714 56.334 C 297.914 56.648 298.111 56.996 298.301 57.37 C 300.982 57.451 304.296 58.276 306.307 59.323 C 308.244 60.331 309.45 61.663 310.557 63.519 C 311.852 65.691 313.649 68.797 313.172 71.912 C 312.574 75.823 308.525 82.695 305 85.148 C 303.074 86.488 300.537 87.159 298.085 87.319 C 297.241 88.894 296.124 90.325 294.8 91.338 C 291.998 93.483 286.617 95.106 283.032 94.567 C 279.553 94.044 275.559 91.022 273.551 88.434 C 272.852 87.531 272.271 86.523 271.833 85.454 C 271.345 85.272 270.874 85.047 270.421 84.79 C 269.231 86.569 267.673 88.139 266.139 89.132 C 263.491 90.847 259.545 91.656 256.332 91.069 C 252.889 90.439 248.215 87.89 246.198 84.935 C 244.179 81.975 243.515 76.683 244.237 73.314 C 244.642 71.422 245.882 69.467 247.228 67.853 C 246.653 65.38 246.557 62.677 247.024 60.612 C 247.772 57.307 251.159 53.633 253.235 51.895 C 254.757 50.621 255.686 50.02 257.811 49.959 C 261.079 49.866 268.982 50.859 271.868 53.832 C 272.17 54.144 272.454 54.501 272.717 54.895 C 273.158 54.845 273.608 54.824 274.067 54.838 Z" style="stroke-width: 2px; fill: rgb(198, 198, 198); fill-opacity: 0.8;" class="cloud2"/>
  </g>
</svg>