<?xml version="1.0" encoding="utf-8"?>
<svg viewBox="0 0 240 320" width="240px" height="320px" xmlns="http://www.w3.org/2000/svg">
  <defs>
    <linearGradient gradientUnits="userSpaceOnUse" x1="127.291" y1="137.615" x2="127.291" y2="304.846" id="gradient-0">
      <stop offset="0" style="stop-color: rgba(39, 22, 0, 1)"/>
      <stop offset="1" style="stop-color: rgba(0, 0, 0, 1)"/>
    </linearGradient>
    <linearGradient gradientUnits="userSpaceOnUse" x1="118.444" y1="237.608" x2="118.444" y2="337.581" id="gradient-1">
      <stop offset="0" style="stop-color: rgba(21, 51, 0, 1)"/>
      <stop offset="1" style="stop-color: rgba(0, 0, 0, 1)"/>
    </linearGradient>
  </defs>
  <rect x="-4.981" y="-6.511" width="262.601" height="221.802" style="fill: rgb(10, 10, 10);"/>
  <path stroke-width="0" d="M 12.636 137.308 C 16.778 137.038 22.798 154.504 26.36 155.499 C 30.204 156.574 34.817 159.044 37.233 160.639 C 39.022 161.821 53.62 154.907 56.306 156.207 C 61.901 158.915 68.025 171.361 74.752 174.904 C 78.963 177.122 76.113 182.924 77.578 185.951 C 79.613 190.157 82.669 195.589 86.721 198.405 C 89.815 200.555 97.026 186.596 100.993 186.679 C 104.021 186.743 112.631 166.675 115.697 167.071 C 120.133 167.644 119.716 185.025 122.782 185.896 C 124.219 186.305 125.557 192.632 126.291 192.833 C 126.883 192.997 129.477 184.801 130.181 184.644 C 131.713 184.304 136.42 185.41 139.274 184.054 C 141.96 182.778 144.177 183.107 147.756 182.566 C 151.957 181.931 166.175 138.966 171.081 139.667 C 176.31 140.414 185.572 193.197 189.42 195.482 C 193.069 197.65 182.367 206.73 184.197 210.248 C 186.615 214.896 185.447 223.767 187.947 228.572 C 189.918 232.362 194.579 234.405 196.195 237.511 C 197.76 240.52 198.882 243.749 197.695 246.896 C 196.383 250.375 192.23 255.131 187.571 257.399 C 183.202 259.526 175.768 260.372 171.076 260.527 C 167.308 260.653 164.422 260.059 161.328 259.187 C 158.026 258.256 153.498 255.903 151.955 254.941 C 151.17 254.45 151.721 254.012 150.831 253.824 C 149.156 253.47 144.143 254.864 140.333 254.717 C 135.988 254.55 130.337 252.73 126.086 252.483 C 122.479 252.273 120.002 253.539 116.338 252.93 C 111.453 252.117 103.344 249.382 99.467 246.449 C 95.64 243.553 94.476 235.633 93.095 235.499 C 92.023 235.396 92.665 239.554 91.219 241.533 C 89.612 243.733 87.124 246.372 83.347 248.013 C 79.074 249.869 71.162 251.435 66.1 251.589 C 61.872 251.717 58.185 250.822 54.853 249.801 C 51.574 248.797 48.637 247.448 46.231 245.555 C 43.505 243.412 42.755 239.485 39.857 237.287 C 37.154 235.237 32.255 234.444 29.734 232.594 C 27.343 230.84 26.815 226.247 24.86 226.561 C 21.961 227.027 17.647 239.796 13.988 243.321 C 11.628 245.594 10.168 246.461 6.865 247.567 C 2.783 248.933 -4.155 250.506 -9.631 250.248 C -15.278 249.983 -22.531 247.98 -26.502 245.779 C -30.133 243.766 -32.188 240.503 -33.252 237.958 C -34.205 235.674 -34.26 234.69 -33.252 231.254 C -31.294 224.594 -17.546 204.066 -16.005 197.734 C -15.253 194.645 -17.202 194.472 -16.754 191.924 C -16.082 188.093 -11.188 180.826 -10.007 176.282 C -9.037 172.554 -10.721 169.484 -9.257 166.449 C -7.812 163.457 -5.296 160.217 -1.383 158.181 C 2.707 156.053 7.697 137.629 12.636 137.308 Z" style="stroke-width: 2px; fill: rgb(32, 24, 0);"/>
  <path stroke-width="0" d="M 32.682 147.012 C 34.9 146.542 38.29 137.007 40.65 137.646 C 43.287 138.36 45.404 151.165 47.696 154.206 C 51.11 158.733 51.37 170.031 53.426 179.305 C 55.904 190.482 57.382 216.19 60.615 217.404 C 63.175 218.365 67.044 201.34 71.09 197.851 C 74.052 195.297 79.581 178.294 82.948 178.66 C 86.658 179.063 89.355 196.933 92.389 200.993 C 96.676 206.73 97.628 230.164 100.42 230.672 C 102.782 231.102 104.585 215.576 107.752 211.818 C 110.049 209.092 114.977 193.059 117.684 192.384 C 120.218 191.751 123.311 205.676 125.873 206.492 C 128.781 207.418 129.4 210.095 132.194 213.563 C 136.282 218.638 139.94 238.179 143.716 238.354 C 147.265 238.518 151.613 220.817 154.191 217.404 C 155.46 215.724 156.245 216.142 157.333 214.96 C 158.775 213.394 159.886 210.255 161.872 208.326 C 164.004 206.255 166.186 206.723 169.903 203.088 C 177.629 195.535 197.045 162.349 206.565 155.952 C 211.807 152.429 217.615 140.499 221.312 141.24 C 224.543 141.887 226.047 156.193 227.864 159.094 C 230.11 162.681 227.901 168.05 230.657 175.155 C 235.214 186.899 253.795 212.07 259.289 224.737 C 262.967 233.218 265.215 239.364 264.875 244.988 C 264.598 249.58 261.722 254.065 259.638 256.51 C 258.081 258.337 255.328 257.943 254.4 259.653 C 253.347 261.593 255.233 265.234 254.4 268.033 C 253.467 271.169 250.24 275.679 248.465 277.46 C 247.335 278.593 246.031 278.541 245.322 279.206 C 244.758 279.735 245.154 280.379 244.275 280.952 C 242.427 282.156 236.704 284.916 231.705 284.443 C 225.09 283.817 211.076 272.453 207.613 273.968 C 205.245 275.004 208.063 281.154 206.914 284.094 C 205.799 286.949 203.552 289.434 200.979 291.426 C 198.187 293.587 195.899 294.742 190.504 296.315 C 181.125 299.048 157.4 302.892 145.113 303.996 C 135.797 304.833 131.847 305.392 122.068 303.996 C 108.012 301.991 75.485 290.297 66.9 289.331 C 63.501 288.949 64.278 290.667 61.314 290.03 C 54.964 288.666 35.888 279.272 27.096 273.968 C 20.293 269.865 15.831 266.203 11.384 261.748 C 7.19 257.548 4.367 251.507 0.909 248.13 C -1.906 245.382 -5.607 244.682 -7.471 242.195 C -9.226 239.853 -10.061 236.555 -10.264 233.815 C -10.458 231.206 -10.249 229.631 -8.868 226.133 C -6.481 220.088 2.238 209.155 6.495 199.597 C 10.921 189.66 13.154 175.795 16.97 167.474 C 19.919 161.045 21.892 158.968 24.986 156.127 C 27.104 154.182 30.478 147.479 32.682 147.012 Z" style="stroke-width: 2px; fill-rule: nonzero; paint-order: fill; fill: url(#gradient-0);" class="mountain"/>
  <path stroke-width="0" d="M 240.915 326.364 C 235.574 328.324 223.831 328.024 219.616 330.205 C 216.943 331.589 217.638 334.211 215.077 335.443 C 211.302 337.258 206.209 337.742 196.921 337.538 C 179.676 337.158 133.767 328.524 111.725 327.063 C 95.863 326.011 85.652 326.524 74.016 327.063 C 63.473 327.551 51.834 330.834 44.686 329.856 C 39.663 329.169 37.504 324.996 33.513 324.968 C 29.173 324.937 22.729 330.318 19.546 330.554 C 17.597 330.699 16.686 329.248 15.356 329.158 C 14.136 329.075 13.52 330.252 11.865 329.856 C 8.789 329.119 1.231 324.967 -2.451 321.127 C -6.058 317.364 -8.829 312.285 -10.132 307.161 C -11.484 301.846 -11.233 294.19 -10.132 289.702 C -9.28 286.226 -11.104 284.968 -9.103 283.157 C -7.292 281.516 -11.339 279.206 -10.132 276.33 C -7.709 270.556 -4.751 245.772 -3.847 238.026 C -3.83 237.884 -3.813 237.744 -3.795 237.608 C -3.095 238.003 -2.343 238.377 -1.542 238.759 C 2.052 240.474 8.651 239.715 12.424 242.25 C 16.233 244.81 17.925 250.693 21.153 254.122 C 24.237 257.397 27.171 260.15 31.279 262.502 C 35.927 265.163 41.4 267.729 48.039 268.787 C 56.05 270.064 65.425 267.971 76.67 268.088 C 90.759 268.236 114.238 268.743 126.949 270.183 C 135.973 271.206 141.223 272.254 147.899 274.373 C 154.483 276.464 160.502 281.403 166.754 282.753 C 172.602 284.016 178.178 284.039 184.212 282.753 C 190.929 281.321 197.712 275.209 205.162 273.675 C 212.817 272.099 225.045 272.783 229.603 273.675 C 231.957 274.136 231.792 275.349 233.793 275.77 C 236.63 276.367 241.534 276.638 246.112 275.932 C 246.57 276.535 247.018 277.137 247.454 277.734 C 247.325 284.113 247.219 290.444 247.357 296.911 C 247.519 304.51 247.679 313.916 247.943 322.581 C 246.055 324.05 243.817 325.3 240.915 326.364 Z" style="stroke-width: 2px; fill: url(#gradient-1);" class="grass"/>
  <path style="stroke: rgb(0, 0, 0); fill: rgb(217, 216, 185);" d="M 127.425 37.273 C 127.425 37.273 59.716 23.742 92.495 77.651 C 125.274 131.56 110.103 78.535 110.103 78.535 C 110.103 78.535 83.468 49.468 138.796 53.592 C 194.124 57.716 124.841 36.672 127.425 37.273 Z" transform="matrix(0.91563, -0.402021, 0.402021, 0.91563, -17.374204, 54.815433)"/>
  <g>
    <ellipse style="fill: rgb(216, 216, 216); stroke: rgb(0, 0, 0);" cx="27.161" cy="33.218" rx="1.507" ry="1.525"/>
    <ellipse style="fill: rgb(216, 216, 216); stroke: rgb(0, 0, 0);" cx="224.075" cy="104" rx="1.507" ry="1.525"/>
    <ellipse style="fill: rgb(216, 216, 216); stroke: rgb(0, 0, 0);" cx="234.641" cy="94.031" rx="1.507" ry="1.525"/>
    <ellipse style="fill: rgb(216, 216, 216); stroke: rgb(0, 0, 0);" cx="228.09" cy="58.875" rx="1.507" ry="1.525"/>
    <ellipse style="fill: rgb(216, 216, 216); stroke: rgb(0, 0, 0);" cx="194.84" cy="76.415" rx="1.507" ry="1.525"/>
    <ellipse style="fill: rgb(216, 216, 216); stroke: rgb(0, 0, 0);" cx="163.18" cy="112.383" rx="1.507" ry="1.525"/>
    <ellipse style="fill: rgb(216, 216, 216); stroke: rgb(0, 0, 0);" cx="141.068" cy="77.034" rx="1.507" ry="1.525"/>
    <ellipse style="fill: rgb(216, 216, 216); stroke: rgb(0, 0, 0);" cx="220.483" cy="49.324" rx="1.507" ry="1.525"/>
    <ellipse style="fill: rgb(216, 216, 216); stroke: rgb(0, 0, 0);" cx="175.368" cy="39.384" rx="1.507" ry="1.525"/>
    <ellipse style="fill: rgb(216, 216, 216); stroke: rgb(0, 0, 0);" cx="175.332" cy="56.471" rx="1.507" ry="1.525"/>
    <ellipse style="fill: rgb(216, 216, 216); stroke: rgb(0, 0, 0);" cx="119.499" cy="67.853" rx="1.507" ry="1.525"/>
    <ellipse style="fill: rgb(216, 216, 216); stroke: rgb(0, 0, 0);" cx="208.04" cy="8.274" rx="1.507" ry="1.525"/>
    <ellipse style="fill: rgb(216, 216, 216); stroke: rgb(0, 0, 0);" cx="181.325" cy="9.461" rx="1.507" ry="1.525"/>
    <ellipse style="fill: rgb(216, 216, 216); stroke: rgb(0, 0, 0);" cx="119.805" cy="22.192" rx="1.507" ry="1.525"/>
    <ellipse style="fill: rgb(216, 216, 216); stroke: rgb(0, 0, 0);" cx="151.053" cy="9.109" rx="1.507" ry="1.525"/>
    <ellipse style="fill: rgb(216, 216, 216); stroke: rgb(0, 0, 0);" cx="84.676" cy="22.705" rx="1.507" ry="1.525"/>
    <ellipse style="fill: rgb(216, 216, 216); stroke: rgb(0, 0, 0);" cx="47.055" cy="99.458" rx="1.507" ry="1.525"/>
    <ellipse style="fill: rgb(216, 216, 216); stroke: rgb(0, 0, 0);" cx="54.276" cy="26.089" rx="1.507" ry="1.525"/>
    <ellipse style="fill: rgb(216, 216, 216); stroke: rgb(0, 0, 0);" cx="17.244" cy="57.976" rx="1.507" ry="1.525"/>
    <ellipse style="fill: rgb(216, 216, 216); stroke: rgb(0, 0, 0);" cx="96.156" cy="3.138" rx="1.507" ry="1.525"/>
    <ellipse style="fill: rgb(216, 216, 216); stroke: rgb(0, 0, 0);" cx="23.011" cy="14.068" rx="1.507" ry="1.525"/>
    <ellipse style="fill: rgb(216, 216, 216); stroke: rgb(0, 0, 0);" cx="17.854" cy="8.156" rx="1.507" ry="1.525"/>
    <ellipse style="fill: rgb(216, 216, 216); stroke: rgb(0, 0, 0);" cx="11.405" cy="101.922" rx="1.507" ry="1.525"/>
    <ellipse style="fill: rgb(216, 216, 216); stroke: rgb(0, 0, 0);" cx="68.09" cy="89.236" rx="1.507" ry="1.525"/>
    <ellipse style="fill: rgb(216, 216, 216); stroke: rgb(0, 0, 0);" cx="62.047" cy="43.973" rx="1.507" ry="1.525"/>
    <ellipse style="fill: rgb(216, 216, 216); stroke: rgb(0, 0, 0);" cx="48.035" cy="9.149" rx="1.507" ry="1.525"/>
    <ellipse style="fill: rgb(216, 216, 216); stroke: rgb(0, 0, 0);" cx="39.707" cy="63.87" rx="1.507" ry="1.525"/>
  </g>
  <path stroke-width="0" d="M -73.897 17.078 C -71.196 16.352 -68.74 16.4 -66.215 17.078 C -65.269 17.331 -64.24 17.649 -63.219 18.063 C -62.834 17.653 -62.468 17.292 -62.138 16.99 C -60.537 15.526 -59.325 15.215 -57.25 14.895 C -56.202 14.733 -54.892 14.627 -53.491 14.624 C -52.559 13.292 -51.619 12.158 -50.858 11.417 C -49.279 9.878 -48.083 9.649 -45.97 9.322 C -43.123 8.881 -38.089 9.059 -34.796 10.02 C -31.749 10.91 -28.776 12.226 -26.766 14.559 C -25.67 15.83 -24.592 17.567 -23.803 19.434 C -23.754 19.43 -23.704 19.428 -23.655 19.425 C -19.325 19.199 -11.126 20.968 -7.943 24.314 C -4.898 27.514 -3.725 34.542 -4.451 38.629 C -5.11 42.334 -7.985 46.125 -11.085 48.057 C -14.312 50.067 -19.914 50.884 -23.655 50.152 C -24.477 49.991 -25.309 49.733 -26.128 49.398 C -26.143 49.479 -26.159 49.56 -26.175 49.641 C -26.99 53.645 -30.481 58.951 -33.507 61.163 C -36.105 63.061 -39.418 63.775 -42.586 63.258 C -46.111 62.683 -51.351 59.991 -53.849 56.954 C -54.341 57.373 -54.837 57.746 -55.325 58.064 C -58.237 59.959 -62.489 60.677 -65.8 60.158 C -69.124 59.638 -73.077 57.798 -75.227 54.921 C -76.475 53.251 -77.487 50.607 -78.111 47.909 C -81.003 46.583 -83.844 44.487 -85.419 42.566 C -87.482 40.05 -88.347 36.66 -88.212 33.488 C -88.066 30.051 -86.411 25.4 -84.022 22.664 C -81.637 19.932 -77.077 17.933 -73.897 17.078 Z" style="stroke-width: 2px; fill-opacity: 0.68; fill: rgb(181, 181, 181);" class="cloud1"/>
  <path stroke-width="0" d="M 273.707 59.344 C 273.744 59.304 273.78 59.265 273.818 59.226 C 275.82 57.116 279.175 55.878 281.99 55.352 C 284.737 54.839 287.924 55.078 290.489 55.998 C 293.043 56.914 295.777 58.373 297.354 60.84 C 297.554 61.154 297.751 61.502 297.941 61.876 C 300.622 61.957 303.936 62.782 305.947 63.829 C 307.884 64.837 309.09 66.169 310.197 68.025 C 311.492 70.197 313.289 73.303 312.812 76.418 C 312.214 80.329 308.165 87.201 304.64 89.654 C 302.714 90.994 300.177 91.665 297.725 91.825 C 296.881 93.4 295.764 94.831 294.44 95.844 C 291.638 97.989 286.257 99.612 282.672 99.073 C 279.193 98.55 275.199 95.528 273.191 92.94 C 272.492 92.037 271.911 91.029 271.473 89.96 C 270.985 89.778 270.514 89.553 270.061 89.296 C 268.871 91.075 267.313 92.645 265.779 93.638 C 263.131 95.353 259.185 96.162 255.972 95.575 C 252.529 94.945 247.855 92.396 245.838 89.441 C 243.819 86.481 243.155 81.189 243.877 77.82 C 244.282 75.928 245.522 73.973 246.868 72.359 C 246.293 69.886 246.197 67.183 246.664 65.118 C 247.412 61.813 250.799 58.139 252.875 56.401 C 254.397 55.127 255.326 54.526 257.451 54.465 C 260.719 54.372 268.622 55.365 271.508 58.338 C 271.81 58.65 272.094 59.007 272.357 59.401 C 272.798 59.351 273.248 59.33 273.707 59.344 Z" style="stroke-width: 2px; fill-opacity: 0.8; fill: rgb(167, 167, 167);" class="cloud2"/>
</svg>